<svg xmlns="http://www.w3.org/2000/svg" width="512" height="512" id="gecko"><path d="M175.528 460.22C204.293 442.265 227.112 409.997 231.734 376.114C232.866 367.816 232.965 359.375 232.958 351.016L232.864 336.824C232.793 335.106 232.438 333.424 232.344 331.712L232.265 321.388C232.205 294.861 236.477 286.077 257.326 270.371L270.656 259.947C294.233 240.303 310.69 215.06 324.224 187.912C327.782 180.776 330.284 165.452 339.65 169.18C345.961 171.691 341.609 177.599 351.449 183.573C362.091 190.033 374.18 192.981 386.546 192.998C409.608 193.03 427.638 171.429 452.661 181.625C477.107 191.587 469.219 213.429 457.322 205.965C455.722 204.961 454.639 203.334 453.4 201.944C446.097 193.753 431.866 195.133 422.502 198.585C416.519 200.791 410.977 204.045 404.935 206.141C381.89 214.139 359.246 205.569 338.569 195.534L332.727 206.75C328.615 214.522 324.239 222.27 318.767 229.171C328.542 225.886 337.375 219.5 348.139 219.629C361.018 219.785 370.296 245.529 353.125 244.441C349.931 242.686 348.719 238.388 346.807 235.445C343.198 236.013 339.676 237.384 336.26 238.654L319.151 245.018C316.965 245.715 314.777 246.276 312.518 246.678L307.75 247.43C306.084 247.697 305.665 247.581 304.592 248.928L296.821 257.567C293.047 261.421 289.207 265.174 285.099 268.672L272.581 279.181C288.939 279.26 302.367 286.19 316.756 293.358C312.297 285.07 299.651 271.084 300.653 263.805L300.827 262.633C302.991 251.327 329.709 243.883 336.75 250.739C337.03 251.011 338.1 252.444 338.33 252.524C339.073 252.782 348.046 245.507 351.668 246.835C358.914 249.492 350.172 273.742 334.384 267.116C325.452 263.367 327.233 263.454 317.102 266.002C325.726 275.383 338.174 294.339 330.961 307.577C327.841 313.304 323.093 312.522 317.746 310.673C298.198 303.912 283.177 289.945 260.115 296.672C249.52 299.762 248.221 305.741 248.226 315.371L248.389 328.702C248.493 330.495 248.89 332.246 249.003 334.022L249.254 351.251C249.276 378.436 245.535 398.641 232.215 422.896C205.166 472.149 136.914 513.459 82.25 483.013C64.933 473.368 49.0384 458.421 43.5158 438.811C40.337 427.523 40.4973 413.172 46.4698 402.787C61.6507 376.392 94.3457 392.528 88.2556 417.845C87.3414 421.645 84.6447 425.834 85.7195 429.75C87.1356 434.91 91.0159 438.539 95.5388 441.088C115.275 452.208 141.273 442.531 155.81 427.17C159.261 423.523 159.79 421.982 159.456 417.14C158.881 408.783 156.836 400.535 154.971 392.387C148.823 365.529 140.208 338.91 138.469 311.25L138.222 292.889C138.22 286.015 138.016 279.042 138.511 272.188C145.01 182.174 212.678 107.423 297.096 80.1246L322 73.1893L356.123 65.0849L355.692 64.6131C352.611 61.1069 351.894 56.91 352.191 52.384C353.045 39.3605 366.731 34.939 377.937 35.7852L380.838 31.875C387.229 23.782 394.644 17.5961 405.172 16.3477L408.14 16.3138C417.382 16.7429 426.188 24.0989 431.798 30.9627C434.022 33.6837 433.359 34.6016 436.937 34.9316L442.756 35.2835C450.354 35.6875 459.695 38.7053 465.167 44.2023L465.6 44.6503C475.553 55.2951 468.179 68.2572 461.505 77.898C449.446 95.3156 432.907 113.584 417.613 128.184L384.343 157.942C386.788 158.252 403.108 161.668 404.377 160.861C405.193 160.343 407.911 155.476 408.666 154.28L418.441 140.262C422.801 134.551 428.588 126.816 435.873 124.997C445.026 122.711 453.682 130.289 455.838 138.731L455.963 139.211C458.004 147.515 452.251 154.281 448.351 160.885C455.803 158.501 464.155 153.55 472.225 155.415C479.128 157.011 489.525 171.256 480.424 175.958C473.28 179.649 471.239 171.834 465.344 173.201C457.192 175.092 437.413 182.439 432.396 172.098C425.86 158.629 442.014 146.795 439.409 142.342C431.45 142.097 420.46 171.138 414.875 174.814C407.449 179.702 383.137 174.078 375.15 172.263C370.959 171.311 363.965 170.157 361.603 166.173C357.798 159.755 364.731 155.044 368.744 151.277L385.57 135.871C399.05 123.668 450.403 75.0953 454.59 57.4138C448.315 49.6852 436.808 52.9675 428.501 48.9267C420.6 45.0831 416.606 34.2634 407.375 32.8125C396.947 31.1734 393.133 45.8419 385.545 50.0734C380.077 53.122 373.514 51.8008 367.682 53.4773C370.593 58.5849 375.843 66.2137 372.456 72.25C367.87 80.4225 354.729 82.1836 346.555 84.1012L312.758 91.8548C228.789 115.097 160.161 186.077 154.436 275.473C154.085 280.949 154.25 286.518 154.25 292.008L154.469 308.851C155.792 331.482 161.894 353.41 167.312 375.307L173.755 403.256C178.929 390.102 181.2 378.063 180.187 364L177.398 341.164C169.884 280.807 188.214 219.078 230.436 174.661C248.394 155.77 267.182 141.08 293.9 140.545C299.847 140.426 310.653 141.66 307.33 150.355C305.778 154.415 302.918 156.254 298.839 156.267L292.641 156.276C275.718 156.601 260.39 168.361 248.521 179.283C205.379 218.986 187.284 277.758 192.934 335.125L196.178 360.125C199.798 397.738 178.702 438.99 143.919 455.001C128.613 462.046 110.024 464.386 93.9923 458.387C77.2843 452.136 66.0969 435.889 70.9071 418.107C71.4488 416.104 72.2758 414.11 72.6935 412.088C74.2594 404.507 61.9251 399.981 57.9863 417.127C51.7139 444.432 80.5431 467.804 103.622 474.757C128.047 482.115 154.653 473.099 175.528 460.22Z"></path><path d="M401.723 63.249C386.343 63.5782 385.441 44.2679 399.867 41.8183C413.873 41.316 415.4 60.4813 401.723 63.249Z"></path></svg>